<mxfile host="Electron" agent="Mozilla/5.0 (Windows NT 10.0; Win64; x64) AppleWebKit/537.36 (KHTML, like Gecko) draw.io/24.7.8 Chrome/128.0.6613.36 Electron/32.0.1 Safari/537.36" version="24.7.8" pages="2">
  <diagram id="qgWPvf7-QacGkRrDBNLa" name="fc">
    <mxGraphModel dx="1038" dy="796" grid="1" gridSize="10" guides="1" tooltips="1" connect="1" arrows="1" fold="1" page="1" pageScale="1" pageWidth="1169" pageHeight="827" math="0" shadow="0">
      <root>
        <mxCell id="0" />
        <mxCell id="1" parent="0" />
        <mxCell id="ePCtaBPtux7yD86hfvgC-34" style="edgeStyle=none;shape=connector;rounded=0;orthogonalLoop=1;jettySize=auto;html=1;exitX=0;exitY=0.5;exitDx=0;exitDy=0;strokeColor=default;align=center;verticalAlign=middle;fontFamily=Helvetica;fontSize=11;fontColor=default;labelBackgroundColor=default;endArrow=block;endFill=1;entryX=0;entryY=0.5;entryDx=0;entryDy=0;" edge="1" parent="1" source="ePCtaBPtux7yD86hfvgC-13" target="ePCtaBPtux7yD86hfvgC-30">
          <mxGeometry relative="1" as="geometry">
            <mxPoint x="430" y="220" as="targetPoint" />
            <Array as="points">
              <mxPoint x="520" y="590" />
              <mxPoint x="520" y="170" />
            </Array>
          </mxGeometry>
        </mxCell>
        <mxCell id="ePCtaBPtux7yD86hfvgC-45" style="edgeStyle=none;shape=connector;rounded=0;orthogonalLoop=1;jettySize=auto;html=1;exitX=0.5;exitY=1;exitDx=0;exitDy=0;entryX=0.5;entryY=0;entryDx=0;entryDy=0;strokeColor=default;align=center;verticalAlign=middle;fontFamily=Helvetica;fontSize=11;fontColor=default;labelBackgroundColor=default;endArrow=block;endFill=1;" edge="1" parent="1" source="ePCtaBPtux7yD86hfvgC-13" target="ePCtaBPtux7yD86hfvgC-44">
          <mxGeometry relative="1" as="geometry" />
        </mxCell>
        <mxCell id="ePCtaBPtux7yD86hfvgC-13" value="&lt;div style=&quot;font-size: 13px;&quot;&gt;counter = task?&lt;/div&gt;" style="rhombus;whiteSpace=wrap;html=1;fontFamily=Helvetica;fontSize=13;fontColor=default;labelBackgroundColor=default;" vertex="1" parent="1">
          <mxGeometry x="561" y="540" width="120" height="100" as="geometry" />
        </mxCell>
        <mxCell id="ePCtaBPtux7yD86hfvgC-42" style="edgeStyle=none;shape=connector;rounded=0;orthogonalLoop=1;jettySize=auto;html=1;exitX=0.5;exitY=1;exitDx=0;exitDy=0;entryX=0.5;entryY=0;entryDx=0;entryDy=0;strokeColor=default;align=center;verticalAlign=middle;fontFamily=Helvetica;fontSize=11;fontColor=default;labelBackgroundColor=default;endArrow=block;endFill=1;" edge="1" parent="1" source="ePCtaBPtux7yD86hfvgC-15" target="ePCtaBPtux7yD86hfvgC-41">
          <mxGeometry relative="1" as="geometry" />
        </mxCell>
        <mxCell id="ePCtaBPtux7yD86hfvgC-15" value="set counter&lt;div style=&quot;font-size: 13px;&quot;&gt;initially 0&amp;nbsp;&lt;/div&gt;" style="shape=hexagon;perimeter=hexagonPerimeter2;whiteSpace=wrap;html=1;fixedSize=1;fontFamily=Helvetica;fontSize=13;fontColor=default;labelBackgroundColor=default;" vertex="1" parent="1">
          <mxGeometry x="282" y="580" width="118" height="60" as="geometry" />
        </mxCell>
        <mxCell id="ePCtaBPtux7yD86hfvgC-26" style="edgeStyle=none;shape=connector;rounded=0;orthogonalLoop=1;jettySize=auto;html=1;exitX=0.5;exitY=1;exitDx=0;exitDy=0;entryX=0.5;entryY=0;entryDx=0;entryDy=0;strokeColor=default;align=center;verticalAlign=middle;fontFamily=Helvetica;fontSize=11;fontColor=default;labelBackgroundColor=default;endArrow=block;endFill=1;" edge="1" parent="1" source="ePCtaBPtux7yD86hfvgC-16" target="ePCtaBPtux7yD86hfvgC-18">
          <mxGeometry relative="1" as="geometry" />
        </mxCell>
        <mxCell id="ePCtaBPtux7yD86hfvgC-16" value="set tasks&lt;div style=&quot;font-size: 13px;&quot;&gt;initially 0&amp;nbsp;&lt;/div&gt;" style="shape=hexagon;perimeter=hexagonPerimeter2;whiteSpace=wrap;html=1;fixedSize=1;fontFamily=Helvetica;fontSize=13;fontColor=default;labelBackgroundColor=default;" vertex="1" parent="1">
          <mxGeometry x="282" y="140" width="118" height="60" as="geometry" />
        </mxCell>
        <mxCell id="ePCtaBPtux7yD86hfvgC-25" style="edgeStyle=none;shape=connector;rounded=0;orthogonalLoop=1;jettySize=auto;html=1;exitX=0.5;exitY=1;exitDx=0;exitDy=0;entryX=0.5;entryY=0;entryDx=0;entryDy=0;strokeColor=default;align=center;verticalAlign=middle;fontFamily=Helvetica;fontSize=11;fontColor=default;labelBackgroundColor=default;endArrow=block;endFill=1;" edge="1" parent="1" source="ePCtaBPtux7yD86hfvgC-17" target="ePCtaBPtux7yD86hfvgC-16">
          <mxGeometry relative="1" as="geometry" />
        </mxCell>
        <mxCell id="ePCtaBPtux7yD86hfvgC-17" value="start" style="rounded=1;whiteSpace=wrap;html=1;fontFamily=Helvetica;fontSize=13;fontColor=default;labelBackgroundColor=default;arcSize=50;" vertex="1" parent="1">
          <mxGeometry x="281" y="40" width="120" height="60" as="geometry" />
        </mxCell>
        <mxCell id="ePCtaBPtux7yD86hfvgC-27" style="edgeStyle=none;shape=connector;rounded=0;orthogonalLoop=1;jettySize=auto;html=1;exitX=0.5;exitY=1;exitDx=0;exitDy=0;entryX=0.5;entryY=0;entryDx=0;entryDy=0;strokeColor=default;align=center;verticalAlign=middle;fontFamily=Helvetica;fontSize=11;fontColor=default;labelBackgroundColor=default;endArrow=block;endFill=1;" edge="1" parent="1" source="ePCtaBPtux7yD86hfvgC-18" target="ePCtaBPtux7yD86hfvgC-22">
          <mxGeometry relative="1" as="geometry" />
        </mxCell>
        <mxCell id="ePCtaBPtux7yD86hfvgC-18" value="initialise names&lt;div&gt;and jobs&lt;/div&gt;" style="shape=hexagon;perimeter=hexagonPerimeter2;whiteSpace=wrap;html=1;fixedSize=1;fontFamily=Helvetica;fontSize=13;fontColor=default;labelBackgroundColor=default;" vertex="1" parent="1">
          <mxGeometry x="282" y="240" width="118" height="60" as="geometry" />
        </mxCell>
        <mxCell id="ePCtaBPtux7yD86hfvgC-24" style="edgeStyle=none;shape=connector;rounded=0;orthogonalLoop=1;jettySize=auto;html=1;exitX=0;exitY=0.5;exitDx=0;exitDy=0;entryX=0;entryY=0.5;entryDx=0;entryDy=0;strokeColor=default;align=center;verticalAlign=middle;fontFamily=Helvetica;fontSize=11;fontColor=default;labelBackgroundColor=default;endArrow=block;endFill=1;" edge="1" parent="1" source="ePCtaBPtux7yD86hfvgC-21" target="ePCtaBPtux7yD86hfvgC-22">
          <mxGeometry relative="1" as="geometry">
            <Array as="points">
              <mxPoint x="240" y="490" />
              <mxPoint x="240" y="370" />
            </Array>
          </mxGeometry>
        </mxCell>
        <mxCell id="ePCtaBPtux7yD86hfvgC-29" style="edgeStyle=none;shape=connector;rounded=0;orthogonalLoop=1;jettySize=auto;html=1;exitX=0.5;exitY=1;exitDx=0;exitDy=0;entryX=0.5;entryY=0;entryDx=0;entryDy=0;strokeColor=default;align=center;verticalAlign=middle;fontFamily=Helvetica;fontSize=11;fontColor=default;labelBackgroundColor=default;endArrow=block;endFill=1;" edge="1" parent="1" source="ePCtaBPtux7yD86hfvgC-21" target="ePCtaBPtux7yD86hfvgC-15">
          <mxGeometry relative="1" as="geometry" />
        </mxCell>
        <mxCell id="ePCtaBPtux7yD86hfvgC-21" value="&lt;div style=&quot;font-size: 13px;&quot;&gt;tasks &amp;lt; 1&amp;nbsp; or&lt;/div&gt;&lt;div style=&quot;font-size: 13px;&quot;&gt;&amp;gt; jobs?&lt;/div&gt;" style="rhombus;whiteSpace=wrap;html=1;fontFamily=Helvetica;fontSize=13;fontColor=default;labelBackgroundColor=default;" vertex="1" parent="1">
          <mxGeometry x="281" y="440" width="120" height="100" as="geometry" />
        </mxCell>
        <mxCell id="ePCtaBPtux7yD86hfvgC-28" style="edgeStyle=none;shape=connector;rounded=0;orthogonalLoop=1;jettySize=auto;html=1;exitX=0.5;exitY=1;exitDx=0;exitDy=0;entryX=0.5;entryY=0;entryDx=0;entryDy=0;strokeColor=default;align=center;verticalAlign=middle;fontFamily=Helvetica;fontSize=11;fontColor=default;labelBackgroundColor=default;endArrow=block;endFill=1;" edge="1" parent="1" source="ePCtaBPtux7yD86hfvgC-22" target="ePCtaBPtux7yD86hfvgC-21">
          <mxGeometry relative="1" as="geometry" />
        </mxCell>
        <mxCell id="ePCtaBPtux7yD86hfvgC-22" value="get number of&lt;div style=&quot;font-size: 12px;&quot;&gt;tasks from&lt;/div&gt;&lt;div style=&quot;font-size: 12px;&quot;&gt;keyboard&lt;/div&gt;" style="shape=parallelogram;perimeter=parallelogramPerimeter;whiteSpace=wrap;html=1;fixedSize=1;fontFamily=Helvetica;fontSize=12;fontColor=default;labelBackgroundColor=default;" vertex="1" parent="1">
          <mxGeometry x="281" y="340" width="120" height="60" as="geometry" />
        </mxCell>
        <mxCell id="ePCtaBPtux7yD86hfvgC-38" style="edgeStyle=none;shape=connector;rounded=0;orthogonalLoop=1;jettySize=auto;html=1;exitX=0.5;exitY=1;exitDx=0;exitDy=0;entryX=0.5;entryY=0;entryDx=0;entryDy=0;strokeColor=default;align=center;verticalAlign=middle;fontFamily=Helvetica;fontSize=11;fontColor=default;labelBackgroundColor=default;endArrow=block;endFill=1;" edge="1" parent="1" source="ePCtaBPtux7yD86hfvgC-30" target="ePCtaBPtux7yD86hfvgC-31">
          <mxGeometry relative="1" as="geometry" />
        </mxCell>
        <mxCell id="ePCtaBPtux7yD86hfvgC-30" value="Pick a name" style="shape=process;whiteSpace=wrap;html=1;backgroundOutline=1;fontFamily=Helvetica;fontSize=13;fontColor=default;labelBackgroundColor=default;" vertex="1" parent="1">
          <mxGeometry x="561" y="140" width="120" height="60" as="geometry" />
        </mxCell>
        <mxCell id="ePCtaBPtux7yD86hfvgC-37" style="edgeStyle=none;shape=connector;rounded=0;orthogonalLoop=1;jettySize=auto;html=1;exitX=0.5;exitY=1;exitDx=0;exitDy=0;entryX=0.5;entryY=0;entryDx=0;entryDy=0;strokeColor=default;align=center;verticalAlign=middle;fontFamily=Helvetica;fontSize=11;fontColor=default;labelBackgroundColor=default;endArrow=block;endFill=1;" edge="1" parent="1" source="ePCtaBPtux7yD86hfvgC-31" target="ePCtaBPtux7yD86hfvgC-32">
          <mxGeometry relative="1" as="geometry" />
        </mxCell>
        <mxCell id="ePCtaBPtux7yD86hfvgC-31" value="Pick a job" style="shape=process;whiteSpace=wrap;html=1;backgroundOutline=1;fontFamily=Helvetica;fontSize=13;fontColor=default;labelBackgroundColor=default;" vertex="1" parent="1">
          <mxGeometry x="561" y="240" width="120" height="60" as="geometry" />
        </mxCell>
        <mxCell id="ePCtaBPtux7yD86hfvgC-36" style="edgeStyle=none;shape=connector;rounded=0;orthogonalLoop=1;jettySize=auto;html=1;exitX=0.5;exitY=1;exitDx=0;exitDy=0;entryX=0.5;entryY=0;entryDx=0;entryDy=0;strokeColor=default;align=center;verticalAlign=middle;fontFamily=Helvetica;fontSize=11;fontColor=default;labelBackgroundColor=default;endArrow=block;endFill=1;" edge="1" parent="1" source="ePCtaBPtux7yD86hfvgC-32" target="ePCtaBPtux7yD86hfvgC-33">
          <mxGeometry relative="1" as="geometry" />
        </mxCell>
        <mxCell id="ePCtaBPtux7yD86hfvgC-32" value="display result" style="shape=parallelogram;perimeter=parallelogramPerimeter;whiteSpace=wrap;html=1;fixedSize=1;fontFamily=Helvetica;fontSize=13;fontColor=default;labelBackgroundColor=default;" vertex="1" parent="1">
          <mxGeometry x="561" y="340" width="120" height="60" as="geometry" />
        </mxCell>
        <mxCell id="ePCtaBPtux7yD86hfvgC-35" style="edgeStyle=none;shape=connector;rounded=0;orthogonalLoop=1;jettySize=auto;html=1;exitX=0.5;exitY=1;exitDx=0;exitDy=0;entryX=0.5;entryY=0;entryDx=0;entryDy=0;strokeColor=default;align=center;verticalAlign=middle;fontFamily=Helvetica;fontSize=11;fontColor=default;labelBackgroundColor=default;endArrow=block;endFill=1;" edge="1" parent="1" source="ePCtaBPtux7yD86hfvgC-33" target="ePCtaBPtux7yD86hfvgC-13">
          <mxGeometry relative="1" as="geometry" />
        </mxCell>
        <mxCell id="ePCtaBPtux7yD86hfvgC-33" value="&lt;font style=&quot;font-size: 13px;&quot;&gt;increment counter&lt;/font&gt;" style="rounded=0;whiteSpace=wrap;html=1;fontFamily=Helvetica;fontSize=13;fontColor=default;labelBackgroundColor=default;" vertex="1" parent="1">
          <mxGeometry x="561" y="440" width="120" height="60" as="geometry" />
        </mxCell>
        <mxCell id="ePCtaBPtux7yD86hfvgC-43" style="edgeStyle=none;shape=connector;rounded=0;orthogonalLoop=1;jettySize=auto;html=1;exitX=0.5;exitY=1;exitDx=0;exitDy=0;entryX=0.5;entryY=0;entryDx=0;entryDy=0;strokeColor=default;align=center;verticalAlign=middle;fontFamily=Helvetica;fontSize=11;fontColor=default;labelBackgroundColor=default;endArrow=block;endFill=1;" edge="1" parent="1" source="ePCtaBPtux7yD86hfvgC-39" target="ePCtaBPtux7yD86hfvgC-30">
          <mxGeometry relative="1" as="geometry" />
        </mxCell>
        <mxCell id="ePCtaBPtux7yD86hfvgC-39" value="a" style="ellipse;whiteSpace=wrap;html=1;aspect=fixed;fontFamily=Helvetica;fontSize=13;fontColor=default;labelBackgroundColor=default;" vertex="1" parent="1">
          <mxGeometry x="596" y="40" width="50" height="50" as="geometry" />
        </mxCell>
        <mxCell id="ePCtaBPtux7yD86hfvgC-41" value="a" style="ellipse;whiteSpace=wrap;html=1;aspect=fixed;fontFamily=Helvetica;fontSize=13;fontColor=default;labelBackgroundColor=default;" vertex="1" parent="1">
          <mxGeometry x="316" y="680" width="50" height="50" as="geometry" />
        </mxCell>
        <mxCell id="ePCtaBPtux7yD86hfvgC-44" value="end" style="rounded=1;whiteSpace=wrap;html=1;fontFamily=Helvetica;fontSize=13;fontColor=default;labelBackgroundColor=default;arcSize=50;" vertex="1" parent="1">
          <mxGeometry x="561" y="680" width="120" height="60" as="geometry" />
        </mxCell>
        <mxCell id="ePCtaBPtux7yD86hfvgC-46" value="&lt;font style=&quot;font-size: 13px;&quot;&gt;Yes&lt;/font&gt;" style="text;html=1;align=right;verticalAlign=middle;whiteSpace=wrap;rounded=0;fontFamily=Helvetica;fontSize=11;fontColor=default;labelBackgroundColor=default;" vertex="1" parent="1">
          <mxGeometry x="250" y="455" width="32" height="30" as="geometry" />
        </mxCell>
        <mxCell id="ePCtaBPtux7yD86hfvgC-47" value="&lt;font style=&quot;font-size: 13px;&quot;&gt;Yes&lt;/font&gt;" style="text;html=1;align=left;verticalAlign=middle;whiteSpace=wrap;rounded=0;fontFamily=Helvetica;fontSize=11;fontColor=default;labelBackgroundColor=default;" vertex="1" parent="1">
          <mxGeometry x="628" y="640" width="39" height="30" as="geometry" />
        </mxCell>
        <mxCell id="ePCtaBPtux7yD86hfvgC-48" value="&lt;font style=&quot;font-size: 13px;&quot;&gt;No&lt;/font&gt;" style="text;html=1;align=right;verticalAlign=middle;whiteSpace=wrap;rounded=0;fontFamily=Helvetica;fontSize=11;fontColor=default;labelBackgroundColor=default;" vertex="1" parent="1">
          <mxGeometry x="531" y="560" width="30" height="30" as="geometry" />
        </mxCell>
        <mxCell id="ePCtaBPtux7yD86hfvgC-49" value="No" style="text;html=1;align=left;verticalAlign=middle;whiteSpace=wrap;rounded=0;fontFamily=Helvetica;fontSize=13;fontColor=default;labelBackgroundColor=default;" vertex="1" parent="1">
          <mxGeometry x="350" y="540" width="30" height="30" as="geometry" />
        </mxCell>
      </root>
    </mxGraphModel>
  </diagram>
  <diagram name="sd" id="S-HVmQZLeK4J21S3fjMI">
    <mxGraphModel dx="882" dy="677" grid="1" gridSize="10" guides="1" tooltips="1" connect="1" arrows="1" fold="1" page="1" pageScale="1" pageWidth="1169" pageHeight="827" math="0" shadow="0">
      <root>
        <mxCell id="0" />
        <mxCell id="1" parent="0" />
        <mxCell id="GJdeQ6y97pLBnK3WJc05-13" style="edgeStyle=none;shape=connector;rounded=0;orthogonalLoop=1;jettySize=auto;html=1;exitX=0.5;exitY=1;exitDx=0;exitDy=0;strokeColor=default;align=center;verticalAlign=middle;fontFamily=Helvetica;fontSize=11;fontColor=default;labelBackgroundColor=default;endArrow=none;endFill=0;" edge="1" parent="1" source="GJdeQ6y97pLBnK3WJc05-1">
          <mxGeometry relative="1" as="geometry">
            <mxPoint x="460" y="240" as="targetPoint" />
          </mxGeometry>
        </mxCell>
        <mxCell id="GJdeQ6y97pLBnK3WJc05-1" value="Task Picker" style="rounded=0;whiteSpace=wrap;html=1;" vertex="1" parent="1">
          <mxGeometry x="400" y="160" width="120" height="60" as="geometry" />
        </mxCell>
        <mxCell id="GJdeQ6y97pLBnK3WJc05-14" style="edgeStyle=none;shape=connector;rounded=0;orthogonalLoop=1;jettySize=auto;html=1;exitX=0.5;exitY=0;exitDx=0;exitDy=0;strokeColor=default;align=center;verticalAlign=middle;fontFamily=Helvetica;fontSize=11;fontColor=default;labelBackgroundColor=default;endArrow=none;endFill=0;" edge="1" parent="1" source="GJdeQ6y97pLBnK3WJc05-2">
          <mxGeometry relative="1" as="geometry">
            <mxPoint x="360" y="240" as="targetPoint" />
          </mxGeometry>
        </mxCell>
        <mxCell id="GJdeQ6y97pLBnK3WJc05-2" value="Initialise variables&lt;div&gt;and arrays&lt;/div&gt;" style="rounded=0;whiteSpace=wrap;html=1;" vertex="1" parent="1">
          <mxGeometry x="300" y="280" width="120" height="60" as="geometry" />
        </mxCell>
        <mxCell id="GJdeQ6y97pLBnK3WJc05-8" style="rounded=0;orthogonalLoop=1;jettySize=auto;html=1;exitX=0.5;exitY=0;exitDx=0;exitDy=0;entryX=0.5;entryY=1;entryDx=0;entryDy=0;endArrow=none;endFill=0;" edge="1" parent="1" source="GJdeQ6y97pLBnK3WJc05-3" target="GJdeQ6y97pLBnK3WJc05-2">
          <mxGeometry relative="1" as="geometry" />
        </mxCell>
        <mxCell id="GJdeQ6y97pLBnK3WJc05-3" value="Get valid number&lt;div&gt;of tasks&lt;/div&gt;" style="rounded=0;whiteSpace=wrap;html=1;" vertex="1" parent="1">
          <mxGeometry x="300" y="400" width="120" height="60" as="geometry" />
        </mxCell>
        <mxCell id="GJdeQ6y97pLBnK3WJc05-15" style="edgeStyle=none;shape=connector;rounded=0;orthogonalLoop=1;jettySize=auto;html=1;exitX=0.5;exitY=0;exitDx=0;exitDy=0;strokeColor=default;align=center;verticalAlign=middle;fontFamily=Helvetica;fontSize=11;fontColor=default;labelBackgroundColor=default;endArrow=none;endFill=0;" edge="1" parent="1" source="GJdeQ6y97pLBnK3WJc05-4">
          <mxGeometry relative="1" as="geometry">
            <mxPoint x="560" y="240" as="targetPoint" />
          </mxGeometry>
        </mxCell>
        <mxCell id="GJdeQ6y97pLBnK3WJc05-4" value="Loop for required number of tasks" style="rounded=1;whiteSpace=wrap;html=1;arcSize=50;" vertex="1" parent="1">
          <mxGeometry x="500" y="280" width="120" height="60" as="geometry" />
        </mxCell>
        <mxCell id="GJdeQ6y97pLBnK3WJc05-9" style="rounded=0;orthogonalLoop=1;jettySize=auto;html=1;exitX=0.5;exitY=0;exitDx=0;exitDy=0;entryX=0.5;entryY=1;entryDx=0;entryDy=0;endArrow=none;endFill=0;" edge="1" parent="1" source="GJdeQ6y97pLBnK3WJc05-5" target="GJdeQ6y97pLBnK3WJc05-4">
          <mxGeometry relative="1" as="geometry" />
        </mxCell>
        <mxCell id="GJdeQ6y97pLBnK3WJc05-5" value="Pick a name" style="rounded=0;whiteSpace=wrap;html=1;" vertex="1" parent="1">
          <mxGeometry x="500" y="400" width="120" height="60" as="geometry" />
        </mxCell>
        <mxCell id="GJdeQ6y97pLBnK3WJc05-10" style="edgeStyle=none;shape=connector;rounded=0;orthogonalLoop=1;jettySize=auto;html=1;exitX=0.5;exitY=0;exitDx=0;exitDy=0;entryX=0.5;entryY=1;entryDx=0;entryDy=0;strokeColor=default;align=center;verticalAlign=middle;fontFamily=Helvetica;fontSize=11;fontColor=default;labelBackgroundColor=default;endArrow=none;endFill=0;" edge="1" parent="1" source="GJdeQ6y97pLBnK3WJc05-6" target="GJdeQ6y97pLBnK3WJc05-5">
          <mxGeometry relative="1" as="geometry" />
        </mxCell>
        <mxCell id="GJdeQ6y97pLBnK3WJc05-6" value="Pick a task" style="rounded=0;whiteSpace=wrap;html=1;" vertex="1" parent="1">
          <mxGeometry x="500" y="520" width="120" height="60" as="geometry" />
        </mxCell>
        <mxCell id="GJdeQ6y97pLBnK3WJc05-11" style="edgeStyle=none;shape=connector;rounded=0;orthogonalLoop=1;jettySize=auto;html=1;exitX=0.5;exitY=0;exitDx=0;exitDy=0;entryX=0.5;entryY=1;entryDx=0;entryDy=0;strokeColor=default;align=center;verticalAlign=middle;fontFamily=Helvetica;fontSize=11;fontColor=default;labelBackgroundColor=default;endArrow=none;endFill=0;" edge="1" parent="1" source="GJdeQ6y97pLBnK3WJc05-7" target="GJdeQ6y97pLBnK3WJc05-6">
          <mxGeometry relative="1" as="geometry" />
        </mxCell>
        <mxCell id="GJdeQ6y97pLBnK3WJc05-7" value="Display result" style="rounded=0;whiteSpace=wrap;html=1;" vertex="1" parent="1">
          <mxGeometry x="500" y="640" width="120" height="60" as="geometry" />
        </mxCell>
        <mxCell id="GJdeQ6y97pLBnK3WJc05-12" value="" style="endArrow=none;html=1;rounded=0;strokeColor=default;align=center;verticalAlign=middle;fontFamily=Helvetica;fontSize=11;fontColor=default;labelBackgroundColor=default;" edge="1" parent="1">
          <mxGeometry width="50" height="50" relative="1" as="geometry">
            <mxPoint x="360" y="240" as="sourcePoint" />
            <mxPoint x="560" y="240" as="targetPoint" />
          </mxGeometry>
        </mxCell>
      </root>
    </mxGraphModel>
  </diagram>
</mxfile>
